Jump_normalized_Precision Landing14_filtered_grf
version=1
nRows=28
nColumns=37
inDegrees=yes
endheader
time		1_ground_force_vx		1_ground_force_vy		1_ground_force_vz		1_ground_force_px		1_ground_force_py		1_ground_force_pz		1_ground_torque_x		1_ground_torque_y		1_ground_torque_z		2_ground_force_vx		2_ground_force_vy		2_ground_force_vz		2_ground_force_px		2_ground_force_py		2_ground_force_pz		2_ground_torque_x		2_ground_torque_y		2_ground_torque_z		3_ground_force_vx		3_ground_force_vy		3_ground_force_vz		3_ground_force_px		3_ground_force_py		3_ground_force_pz		3_ground_torque_x		3_ground_torque_y		3_ground_torque_z		4_ground_force_vx		4_ground_force_vy		4_ground_force_vz		4_ground_force_px		4_ground_force_py		4_ground_force_pz		4_ground_torque_x		4_ground_torque_y		4_ground_torque_z		
0.190333		0.000000		-0.000000		-0.000000		0.107751		0.000000		0.289496		-0.000000		-0.000000		0.000000		-0.000000		-0.000000		-0.000000		-0.189234		0.000000		0.278759		-0.000000		0.000000		-0.000000		-34.568592		536.559333		30.054952		0.353085		1.253840		1.892507		1.669561		-25.914243		-1.451564		7.769019		490.063838		16.720711		-0.289654		1.264088		1.903524		0.445467		28.099735		0.958747		
0.194071		0.000000		-0.000000		-0.000000		0.107751		0.000000		0.289496		-0.000000		-0.000000		0.000000		-0.000000		-0.000000		-0.000000		-0.189234		0.000000		0.278759		-0.000000		0.000000		-0.000000		-33.469376		533.165856		27.439665		0.353140		1.253828		1.892465		1.622112		-25.840186		-1.329878		7.822397		484.113984		14.240146		-0.289644		1.264090		1.903561		0.449404		27.812788		0.818109		
0.197808		0.000000		-0.000000		-0.000000		0.107751		0.000000		0.289496		-0.000000		-0.000000		0.000000		-0.000000		-0.000000		-0.000000		-0.189234		0.000000		0.278759		-0.000000		0.000000		-0.000000		-32.309271		529.595697		25.042576		0.353179		1.253836		1.892464		1.570701		-25.746078		-1.217433		8.040095		478.086423		11.997266		-0.289638		1.264092		1.903598		0.462798		27.519212		0.690576		
0.201545		0.000000		0.000000		0.000000		0.107751		0.000000		0.289496		0.000000		-0.000000		-0.000000		-0.000000		0.000000		-0.000000		-0.189234		0.000000		0.278759		-0.000000		0.000000		0.000000		-31.101782		525.813612		22.761544		0.353206		1.253852		1.892486		1.516353		-25.635810		-1.109728		8.324614		472.079243		9.968768		-0.289636		1.264094		1.903636		0.480032		27.222039		0.574840		
0.205283		0.000000		0.000000		0.000000		0.107751		0.000000		0.289496		0.000000		0.000000		-0.000000		0.000000		0.000000		0.000000		-0.189234		0.000000		0.278759		0.000000		-0.000000		0.000000		-29.885637		521.767789		20.532130		0.353226		1.253863		1.892509		1.461451		-25.515220		-1.004050		8.588783		466.218003		8.115672		-0.289638		1.264098		1.903674		0.496000		26.923945		0.468677		
0.209020		-0.000000		0.000000		0.000000		0.107751		0.000000		0.289496		0.000000		0.000000		-0.000000		0.000000		0.000000		0.000000		-0.189234		0.000000		0.278759		0.000000		-0.000000		0.000000		-28.714816		517.415929		18.329551		0.353238		1.253864		1.892525		1.408887		-25.386918		-0.899336		8.792853		460.628392		6.375433		-0.289638		1.264104		1.903711		0.508310		26.628672		0.368560		
0.212758		-0.000000		0.000000		0.000000		0.107751		0.000000		0.289496		0.000000		0.000000		-0.000000		0.000000		0.000000		0.000000		-0.189234		0.000000		0.278759		0.000000		-0.000000		0.000000		-27.643558		512.741965		16.177432		0.353245		1.253861		1.892536		1.361176		-25.247555		-0.796579		8.944930		455.415897		4.651276		-0.289636		1.264113		1.903750		0.517374		26.341187		0.269029		
0.216495		-0.000000		-0.000000		0.000000		0.107751		0.000000		0.289496		-0.000000		0.000000		0.000000		0.000000		-0.000000		0.000000		-0.189234		0.000000		0.278759		0.000000		-0.000000		-0.000000		-26.705618		507.781225		14.091888		0.353246		1.253863		1.892542		1.319544		-25.089839		-0.696291		9.072311		450.647638		2.794230		-0.289631		1.264125		1.903790		0.524791		26.067911		0.161633		
0.220232		-0.000000		-0.000000		-0.000000		0.107751		0.000000		0.289496		-0.000000		-0.000000		0.000000		-0.000000		-0.000000		-0.000000		-0.189234		0.000000		0.278759		-0.000000		0.000000		-0.000000		-25.923568		502.608909		12.089190		0.353245		1.253872		1.892546		1.284624		-24.906436		-0.599071		9.188360		446.365424		0.646213		-0.289624		1.264137		1.903834		0.531468		25.818390		0.037378		
0.223970		0.000000		-0.000000		-0.000000		0.107751		0.000000		0.289496		-0.000000		-0.000000		0.000000		-0.000000		-0.000000		-0.000000		-0.189234		0.000000		0.278759		-0.000000		0.000000		-0.000000		-25.318728		497.335533		10.164633		0.353241		1.253890		1.892550		1.257195		-24.695071		-0.504722		9.278984		442.573210		-1.876869		-0.289616		1.264147		1.903886		0.536838		25.605186		-0.108587		
0.227707		0.000000		-0.000000		-0.000000		0.107751		0.000000		0.289496		-0.000000		-0.000000		0.000000		-0.000000		-0.000000		-0.000000		-0.189234		0.000000		0.278759		-0.000000		0.000000		-0.000000		-24.919173		492.086046		8.298346		0.353232		1.253913		1.892557		1.238668		-24.460341		-0.412490		9.313611		439.262960		-4.751674		-0.289611		1.264152		1.903945		0.539446		25.442200		-0.275219		
0.231444		0.000000		0.000000		-0.000000		0.107751		0.000000		0.289496		-0.000000		-0.000000		-0.000000		-0.000000		-0.000000		-0.000000		-0.189234		0.000000		0.278759		-0.000000		0.000000		0.000000		-24.748469		486.984098		6.481060		0.353209		1.253942		1.892582		1.230567		-24.214284		-0.322258		9.271914		436.420770		-7.841375		-0.289605		1.264151		1.904013		0.538320		25.338241		-0.455265		
0.235182		0.000000		0.000000		0.000000		0.107751		0.000000		0.289496		0.000000		0.000000		-0.000000		-0.000000		0.000000		0.000000		-0.189234		0.000000		0.278759		0.000000		0.000000		0.000000		-24.811210		482.136954		4.701512		0.353170		1.253978		1.892639		1.233672		-23.972987		-0.233770		9.156846		434.054765		-11.022764		-0.289596		1.264148		1.904085		0.533607		25.294134		-0.642345		
0.238919		-0.000000		0.000000		0.000000		0.107751		0.000000		0.289496		0.000000		0.000000		-0.000000		0.000000		0.000000		0.000000		-0.189234		0.000000		0.278759		0.000000		-0.000000		0.000000		-25.065871		477.630326		2.984985		0.353111		1.254028		1.892750		1.246477		-23.751636		-0.148437		8.991071		432.180259		-14.260044		-0.289581		1.264145		1.904158		0.526375		25.301673		-0.834846		
0.242657		-0.000000		0.000000		0.000000		0.107751		0.000000		0.289496		0.000000		0.000000		-0.000000		0.000000		0.000000		0.000000		-0.189234		0.000000		0.278759		0.000000		-0.000000		0.000000		-25.426608		473.561209		1.278940		0.353038		1.254092		1.892910		1.265049		-23.561077		-0.063631		8.798762		430.792168		-17.630336		-0.289561		1.264145		1.904227		0.517726		25.348132		-1.037386		
0.246394		-0.000000		0.000000		0.000000		0.107751		0.000000		0.289496		0.000000		0.000000		-0.000000		0.000000		0.000000		0.000000		-0.189234		0.000000		0.278759		0.000000		-0.000000		0.000000		-25.793226		470.058649		-0.471316		0.352960		1.254171		1.893109		1.284441		-23.407800		0.023471		8.589745		429.806838		-21.266405		-0.289536		1.264146		1.904283		0.508000		25.418881		-1.257704		
0.250131		-0.000000		-0.000000		-0.000000		0.107751		0.000000		0.289496		-0.000000		0.000000		0.000000		0.000000		-0.000000		0.000000		-0.189234		0.000000		0.278759		0.000000		-0.000000		-0.000000		-26.102024		467.279810		-2.387798		0.352890		1.254259		1.893315		1.301387		-23.297497		0.119051		8.354933		429.043464		-25.233450		-0.289510		1.264144		1.904328		0.496565		25.499682		-1.499724		
0.253869		-0.000000		-0.000000		-0.000000		0.107751		0.000000		0.289496		-0.000000		-0.000000		0.000000		-0.000000		-0.000000		-0.000000		-0.189234		0.000000		0.278759		-0.000000		0.000000		-0.000000		-26.349238		465.355506		-4.583236		0.352839		1.254352		1.893501		1.315711		-23.236852		0.228858		8.065676		428.247779		-29.499932		-0.289489		1.264137		1.904364		0.481717		25.576849		-1.761871		
0.257606		0.000000		-0.000000		-0.000000		0.107751		0.000000		0.289496		-0.000000		-0.000000		0.000000		-0.000000		-0.000000		-0.000000		-0.189234		0.000000		0.278759		-0.000000		0.000000		-0.000000		-26.578616		464.323119		-7.118278		0.352806		1.254445		1.893660		1.329763		-23.230687		0.356138		7.689431		427.152313		-33.927151		-0.289472		1.264126		1.904396		0.461505		25.636905		-2.036250		
0.261343		0.000000		-0.000000		-0.000000		0.107751		0.000000		0.289496		-0.000000		-0.000000		0.000000		-0.000000		-0.000000		-0.000000		-0.189234		0.000000		0.278759		-0.000000		0.000000		-0.000000		-26.849829		464.074854		-10.085319		0.352790		1.254538		1.893787		1.346684		-23.276211		0.505842		7.207113		425.522002		-38.320500		-0.289463		1.264112		1.904425		0.434732		25.667443		-2.311494		
0.265081		0.000000		0.000000		-0.000000		0.107751		0.000000		0.289496		0.000000		-0.000000		-0.000000		-0.000000		0.000000		-0.000000		-0.189234		0.000000		0.278759		-0.000000		0.000000		0.000000		-27.200516		464.359920		-13.486440		0.352780		1.254626		1.893895		1.368365		-23.360359		0.678458		6.622906		423.169753		-42.488937		-0.289458		1.264100		1.904453		0.401579		25.658888		-2.576319		
0.268818		0.000000		0.000000		0.000000		0.107751		0.000000		0.289496		0.000000		0.000000		-0.000000		0.000000		0.000000		0.000000		-0.189234		0.000000		0.278759		0.000000		-0.000000		0.000000		-27.615501		464.850275		-17.316860		0.352770		1.254690		1.893981		1.393908		-23.463577		0.874081		5.960858		419.941732		-46.262432		-0.289455		1.264093		1.904477		0.363419		25.602916		-2.820524		
0.272556		-0.000000		0.000000		0.000000		0.107751		0.000000		0.289496		0.000000		0.000000		-0.000000		0.000000		0.000000		0.000000		-0.189234		0.000000		0.278759		0.000000		-0.000000		0.000000		-28.038262		465.232514		-21.495788		0.352752		1.254720		1.894046		1.420356		-23.567650		1.088931		5.244618		415.703891		-49.563167		-0.289450		1.264092		1.904497		0.321567		25.488376		-3.038907		
0.276293		-0.000000		0.000000		0.000000		0.107751		0.000000		0.289496		0.000000		0.000000		-0.000000		0.000000		0.000000		0.000000		-0.189234		0.000000		0.278759		0.000000		-0.000000		0.000000		-28.396191		465.290327		-25.923825		0.352713		1.254696		1.894084		1.444113		-23.662741		1.318383		4.485412		410.328093		-52.384351		-0.289439		1.264096		1.904512		0.276548		25.298873		-3.229774		
0.280030		-0.000000		-0.000000		0.000000		0.107751		0.000000		0.289496		0.000000		0.000000		0.000000		0.000000		-0.000000		0.000000		-0.189234		0.000000		0.278759		0.000000		-0.000000		-0.000000		-28.624143		464.932568		-30.611543		0.352652		1.254639		1.894107		1.462027		-23.747231		1.563538		3.684738		403.743373		-54.768585		-0.289424		1.264100		1.904522		5.593315		32.426238		51.569264		
0.283768		-0.000000		-0.000000		-0.000000		0.107751		0.000000		0.289496		-0.000000		-0.000000		0.000000		0.000000		-0.000000		-0.000000		-0.189234		0.000000		0.278759		-0.000000		-0.000000		-0.000000		-28.654530		464.144966		-35.634694		0.352565		1.254570		1.894127		1.470603		-23.820758		1.828842		2.850487		395.956963		-56.755892		-0.289403		1.264103		1.904529		5.504479		32.349530		50.506927		
0.287505		0.000000		-0.000000		-0.000000		0.107751		0.000000		0.289496		-0.000000		-0.000000		0.000000		-0.000000		-0.000000		-0.000000		-0.189234		0.000000		0.278759		-0.000000		0.000000		-0.000000		-28.442509		462.906295		-41.164058		0.352469		1.254520		1.894155		1.467085		-23.877047		2.123273		2.000717		387.096605		-58.363748		-0.289383		1.264105		1.904532		5.407501		32.127257		49.302572		
0.291242		0.000000		-0.000000		-0.000000		0.107751		0.000000		0.289496		-0.000000		-0.000000		0.000000		-0.000000		-0.000000		-0.000000		-0.189234		0.000000		0.278759		-0.000000		0.000000		-0.000000		-27.979816		461.108111		-47.307374		0.352386		1.254511		1.894197		1.450346		-23.901761		2.452208		1.154620		377.334449		-59.601163		-0.289366		1.264106		1.904533		5.303956		31.769547		47.969848		
